<svg width="24" height="22" viewBox="0 0 24 22" fill="none" xmlns="http://www.w3.org/2000/svg">
<g filter="url(#filter0_d_20_3)">
<path d="M19.7794 7.1908L14.9126 5.82144C14.4101 6.21593 13.2978 6.49122 12.0004 6.49122C10.7031 6.49122 9.59077 6.21593 9.08833 5.82144L4.22148 7.1908C4.024 7.24756 3.94401 7.38379 4.0415 7.49589L5.47131 9.12067C5.5713 9.23277 5.81127 9.27818 6.00874 9.22284L7.42355 8.82977C7.68852 8.75598 7.99848 8.86525 7.99848 9.03411V12.6328C7.99848 12.8839 8.35593 13.0868 8.79837 13.0868H15.1975C15.64 13.0868 15.9974 12.8839 15.9974 12.6328V9.03269C15.9974 8.86525 16.3074 8.75456 16.5723 8.82835L17.9872 9.22142C18.1846 9.27818 18.4246 9.23277 18.5246 9.11925L19.9569 7.49589C20.0569 7.38379 19.9769 7.24614 19.7794 7.1908Z" fill="#E2D2F9"/>
<ellipse cx="12" cy="3.39964" rx="3" ry="2.4218" fill="#E2D2F9"/>
</g>
<defs>
<filter id="filter0_d_20_3" x="0" y="0.977844" width="24" height="20.109" filterUnits="userSpaceOnUse" color-interpolation-filters="sRGB">
<feFlood flood-opacity="0" result="BackgroundImageFix"/>
<feColorMatrix in="SourceAlpha" type="matrix" values="0 0 0 0 0 0 0 0 0 0 0 0 0 0 0 0 0 0 127 0" result="hardAlpha"/>
<feOffset dy="4"/>
<feGaussianBlur stdDeviation="2"/>
<feComposite in2="hardAlpha" operator="out"/>
<feColorMatrix type="matrix" values="0 0 0 0 0 0 0 0 0 0 0 0 0 0 0 0 0 0 0.25 0"/>
<feBlend mode="normal" in2="BackgroundImageFix" result="effect1_dropShadow_20_3"/>
<feBlend mode="normal" in="SourceGraphic" in2="effect1_dropShadow_20_3" result="shape"/>
</filter>
</defs>
</svg>
