<svg width="102" height="48" viewBox="0 0 102 48" fill="none" xmlns="http://www.w3.org/2000/svg">
<path d="M45 23.5C45 35.5004 35.9235 45 25 45C14.0765 45 5 35.5004 5 23.5C5 11.4996 14.0765 2 25 2C35.9235 2 45 11.4996 45 23.5Z" fill="#356D69" stroke="#E34242" stroke-width="4"/>
<rect y="30" width="56" height="18" fill="#356D69"/>
<path d="M9.7005 32.487C9.79217 32.4723 9.904 32.4613 10.036 32.454C10.1717 32.4467 10.2872 32.443 10.3825 32.443C10.4742 32.443 10.586 32.4467 10.718 32.454C10.85 32.4613 10.9563 32.4742 11.037 32.4925L13.5065 39.9285C13.4222 39.9798 13.3177 40.0165 13.193 40.0385C13.072 40.0642 12.9492 40.077 12.8245 40.077C12.6375 40.077 12.4927 40.0348 12.39 39.9505C12.291 39.8662 12.203 39.7012 12.126 39.4555L10.916 35.633C10.8133 35.314 10.7107 34.9748 10.608 34.6155C10.5053 34.2562 10.4137 33.9317 10.333 33.642H10.278C10.2413 33.807 10.1955 33.9867 10.1405 34.181C10.0892 34.3753 10.0378 34.566 9.9865 34.753C9.93517 34.9363 9.88933 35.0958 9.849 35.2315L8.331 40.011C8.25767 40.0257 8.177 40.0367 8.089 40.044C8.00467 40.0513 7.91667 40.055 7.825 40.055C7.72233 40.055 7.61967 40.0477 7.517 40.033C7.418 40.0183 7.33 40 7.253 39.978L7.22 39.9175L9.7005 32.487ZM9.552 38.185C9.519 38.185 9.44933 38.185 9.343 38.185C9.24033 38.1813 9.13583 38.1795 9.0295 38.1795C8.92683 38.1758 8.85717 38.174 8.8205 38.174H8.276L8.639 37.2225H9.1175C9.15417 37.2225 9.21833 37.2225 9.31 37.2225C9.40167 37.2188 9.49333 37.217 9.585 37.217C9.68033 37.2133 9.7445 37.2115 9.7775 37.2115H10.872C10.9087 37.2115 10.9728 37.2133 11.0645 37.217C11.1562 37.217 11.2497 37.2188 11.345 37.2225C11.444 37.2225 11.51 37.2225 11.543 37.2225H12.038L12.3515 38.174H11.807C11.7703 38.174 11.6988 38.1758 11.5925 38.1795C11.4862 38.1795 11.3798 38.1813 11.2735 38.185C11.1708 38.185 11.1012 38.185 11.0645 38.185H9.552ZM15.6991 39.725H14.5826V31.981L14.6541 31.9095H15.0776C15.3159 31.9095 15.4791 31.9682 15.5671 32.0855C15.6551 32.1992 15.6991 32.3825 15.6991 32.6355V39.725ZM19.0541 37.2115C19.0541 37.8532 18.9423 38.3867 18.7186 38.812C18.4949 39.2373 18.1961 39.5563 17.8221 39.769C17.4481 39.978 17.0356 40.0825 16.5846 40.0825C16.2326 40.0825 15.8879 40.0513 15.5506 39.989C15.2133 39.9267 14.8906 39.8387 14.5826 39.725L15.1436 38.8505C15.3709 38.9825 15.5983 39.0815 15.8256 39.1475C16.0566 39.2098 16.3133 39.241 16.5956 39.241C16.8449 39.241 17.0668 39.1677 17.2611 39.021C17.4591 38.8707 17.6131 38.6452 17.7231 38.3445C17.8368 38.0438 17.8936 37.6717 17.8936 37.228C17.8936 36.59 17.7964 36.1298 17.6021 35.8475C17.4114 35.5652 17.1749 35.424 16.8926 35.424C16.6213 35.4203 16.3554 35.5065 16.0951 35.6825C15.8348 35.8585 15.6276 36.0858 15.4736 36.3645L15.3086 35.435C15.4223 35.292 15.5671 35.1472 15.7431 35.0005C15.9191 34.8538 16.1244 34.731 16.3591 34.632C16.5974 34.5293 16.8614 34.478 17.1511 34.478C17.5728 34.478 17.9229 34.5953 18.2016 34.83C18.4839 35.061 18.6966 35.3837 18.8396 35.798C18.9826 36.2087 19.0541 36.6798 19.0541 37.2115ZM19.8664 39.593C19.8737 39.4683 19.9141 39.329 19.9874 39.175C20.0607 39.0173 20.1451 38.8927 20.2404 38.801C20.4714 38.9257 20.7189 39.0393 20.9829 39.142C21.2469 39.241 21.5146 39.2905 21.7859 39.2905C22.0866 39.2905 22.3249 39.2263 22.5009 39.098C22.6769 38.9697 22.7667 38.8047 22.7704 38.603C22.7704 38.449 22.7117 38.306 22.5944 38.174C22.4771 38.042 22.3047 37.9357 22.0774 37.855L21.4394 37.6185C21.1864 37.5268 20.9536 37.4113 20.7409 37.272C20.5319 37.1327 20.3632 36.964 20.2349 36.766C20.1066 36.5643 20.0424 36.326 20.0424 36.051C20.0424 35.7137 20.1267 35.424 20.2954 35.182C20.4677 34.94 20.7006 34.7548 20.9939 34.6265C21.2909 34.4945 21.6227 34.4285 21.9894 34.4285C22.2864 34.4285 22.6017 34.467 22.9354 34.544C23.2727 34.621 23.5551 34.7145 23.7824 34.8245C23.7861 34.9162 23.7751 35.017 23.7494 35.127C23.7237 35.2333 23.6834 35.3342 23.6284 35.4295C23.5771 35.5212 23.5184 35.5982 23.4524 35.6605C23.2581 35.5688 23.0326 35.4863 22.7759 35.413C22.5192 35.336 22.2534 35.2975 21.9784 35.2975C21.7401 35.2975 21.5494 35.3562 21.4064 35.4735C21.2634 35.5872 21.1919 35.7412 21.1919 35.9355C21.1919 36.0895 21.2469 36.2178 21.3569 36.3205C21.4706 36.4232 21.6411 36.5167 21.8684 36.601L22.5449 36.8485C22.9592 36.9988 23.2947 37.206 23.5514 37.47C23.8117 37.734 23.9419 38.0787 23.9419 38.504C23.9419 39.0137 23.7439 39.4152 23.3479 39.7085C22.9519 39.9982 22.4312 40.143 21.7859 40.143C21.4009 40.143 21.0434 40.088 20.7134 39.978C20.3871 39.868 20.1047 39.7397 19.8664 39.593ZM25.5369 37.646V36.821H28.2044V36.678C28.2044 36.4213 28.1677 36.1867 28.0944 35.974C28.0247 35.7577 27.9092 35.5853 27.7479 35.457C27.5902 35.3287 27.3794 35.2645 27.1154 35.2645C26.7414 35.2645 26.4609 35.4222 26.2739 35.7375C26.0869 36.0528 25.9934 36.4873 25.9934 37.041V37.3875C25.9934 37.7322 26.0282 38.0438 26.0979 38.3225C26.1712 38.5975 26.2996 38.8157 26.4829 38.977C26.6662 39.1347 26.9266 39.2135 27.2639 39.2135C27.5389 39.2135 27.8047 39.175 28.0614 39.098C28.3181 39.0173 28.5619 38.9165 28.7929 38.7955C28.8882 38.8872 28.9671 39.0027 29.0294 39.142C29.0954 39.2777 29.1357 39.4042 29.1504 39.5215C28.8901 39.7122 28.5766 39.8643 28.2099 39.978C27.8469 40.088 27.4729 40.143 27.0879 40.143C26.6516 40.143 26.2867 40.066 25.9934 39.912C25.7037 39.758 25.4727 39.5472 25.3004 39.2795C25.1317 39.0082 25.0089 38.702 24.9319 38.361C24.8586 38.02 24.8219 37.6643 24.8219 37.294C24.8219 36.7477 24.9062 36.2582 25.0749 35.8255C25.2472 35.3928 25.5039 35.0518 25.8449 34.8025C26.1859 34.5532 26.6094 34.4285 27.1154 34.4285C27.5921 34.4285 27.9917 34.533 28.3144 34.742C28.6407 34.951 28.8864 35.2333 29.0514 35.589C29.2164 35.941 29.2989 36.3352 29.2989 36.7715C29.2989 36.9475 29.2916 37.0997 29.2769 37.228C29.2659 37.3527 29.2457 37.492 29.2164 37.646H25.5369ZM31.2016 34.522C31.44 34.522 31.605 34.5935 31.6966 34.7365C31.792 34.8795 31.8396 35.0775 31.8396 35.3305V40C31.7663 40.0147 31.6801 40.0257 31.5811 40.033C31.4821 40.0403 31.3813 40.044 31.2786 40.044C31.176 40.044 31.0751 40.0403 30.9761 40.033C30.8771 40.0257 30.7873 40.0147 30.7066 40V34.5935L30.7781 34.522H31.2016ZM35.0406 38.8395C35.0406 39.0302 35.0535 39.2117 35.0791 39.384C35.1085 39.5527 35.158 39.7012 35.2276 39.8295C35.1433 39.8992 35.037 39.956 34.9086 40C34.7803 40.0477 34.6483 40.0715 34.5126 40.0715C34.289 40.0715 34.1313 40.011 34.0396 39.89C33.9516 39.769 33.9076 39.5893 33.9076 39.351V36.5515C33.9076 36.1812 33.86 35.9135 33.7646 35.7485C33.6693 35.5798 33.4878 35.4955 33.2201 35.4955C33.0368 35.4955 32.837 35.5395 32.6206 35.6275C32.408 35.7155 32.2063 35.842 32.0156 36.007C31.825 36.1683 31.671 36.3572 31.5536 36.5735V35.4845C31.7993 35.2022 32.1 34.9638 32.4556 34.7695C32.8113 34.5715 33.1871 34.4725 33.5831 34.4725C33.9278 34.4725 34.2065 34.5532 34.4191 34.7145C34.6318 34.8722 34.7876 35.0867 34.8866 35.358C34.9893 35.6293 35.0406 35.9355 35.0406 36.2765V38.8395ZM36.915 33.609C36.915 33.356 36.9572 33.1727 37.0415 33.059C37.1258 32.9417 37.2872 32.883 37.5255 32.883H37.9545L38.026 32.96V38.669C38.026 38.8157 38.0608 38.933 38.1305 39.021C38.2002 39.1053 38.3175 39.1475 38.4825 39.1475H39.2415C39.3002 39.3198 39.3295 39.5105 39.3295 39.7195C39.3295 39.7598 39.3277 39.802 39.324 39.846C39.324 39.89 39.3185 39.9303 39.3075 39.967C39.1242 39.989 38.928 40.0073 38.719 40.022C38.51 40.0403 38.2973 40.0495 38.081 40.0495C37.707 40.0495 37.4192 39.956 37.2175 39.769C37.0158 39.5783 36.915 39.2942 36.915 38.9165V33.609ZM39.3845 34.5605C39.4212 34.6962 39.4395 34.8337 39.4395 34.973C39.4395 35.127 39.4212 35.2682 39.3845 35.3965L37.586 35.3745L36.1065 35.3965C36.0772 35.2608 36.0625 35.1197 36.0625 34.973C36.0625 34.841 36.0772 34.7035 36.1065 34.5605L37.6025 34.5825L39.3845 34.5605ZM40.051 39.593C40.0583 39.4683 40.0986 39.329 40.172 39.175C40.2453 39.0173 40.3296 38.8927 40.425 38.801C40.656 38.9257 40.9035 39.0393 41.1675 39.142C41.4315 39.241 41.6991 39.2905 41.9705 39.2905C42.2711 39.2905 42.5095 39.2263 42.6855 39.098C42.8615 38.9697 42.9513 38.8047 42.955 38.603C42.955 38.449 42.8963 38.306 42.779 38.174C42.6616 38.042 42.4893 37.9357 42.262 37.855L41.624 37.6185C41.371 37.5268 41.1381 37.4113 40.9255 37.272C40.7165 37.1327 40.5478 36.964 40.4195 36.766C40.2911 36.5643 40.227 36.326 40.227 36.051C40.227 35.7137 40.3113 35.424 40.48 35.182C40.6523 34.94 40.8851 34.7548 41.1785 34.6265C41.4755 34.4945 41.8073 34.4285 42.174 34.4285C42.471 34.4285 42.7863 34.467 43.12 34.544C43.4573 34.621 43.7396 34.7145 43.967 34.8245C43.9706 34.9162 43.9596 35.017 43.934 35.127C43.9083 35.2333 43.868 35.3342 43.813 35.4295C43.7616 35.5212 43.703 35.5982 43.637 35.6605C43.4426 35.5688 43.2171 35.4863 42.9605 35.413C42.7038 35.336 42.438 35.2975 42.163 35.2975C41.9246 35.2975 41.734 35.3562 41.591 35.4735C41.448 35.5872 41.3765 35.7412 41.3765 35.9355C41.3765 36.0895 41.4315 36.2178 41.5415 36.3205C41.6551 36.4232 41.8256 36.5167 42.053 36.601L42.7295 36.8485C43.1438 36.9988 43.4793 37.206 43.736 37.47C43.9963 37.734 44.1265 38.0787 44.1265 38.504C44.1265 39.0137 43.9285 39.4152 43.5325 39.7085C43.1365 39.9982 42.6158 40.143 41.9705 40.143C41.5855 40.143 41.228 40.088 40.898 39.978C40.5716 39.868 40.2893 39.7397 40.051 39.593Z" fill="white"/>
</svg>
