<svg width="104" height="48" viewBox="0 0 104 48" fill="none" xmlns="http://www.w3.org/2000/svg">
<path d="M45 23.5C45 35.5004 35.9235 45 25 45C14.0765 45 5 35.5004 5 23.5C5 11.4996 14.0765 2 25 2C35.9235 2 45 11.4996 45 23.5Z" fill="#356D69" stroke="#E9DA5A" stroke-width="4"/>
<rect y="30" width="56" height="18" fill="#356D69"/>
<path d="M11.167 39.011H10.672C10.474 39.011 10.3108 38.9487 10.1825 38.824C10.0542 38.6993 9.99 38.5178 9.99 38.2795V31.509L10.0615 31.443H10.5125C10.7508 31.443 10.9195 31.5035 11.0185 31.6245C11.1175 31.7418 11.167 31.9288 11.167 32.1855V39.011ZM14.3295 37.988C14.3295 38.384 14.269 38.6535 14.148 38.7965C14.027 38.9395 13.8253 39.011 13.543 39.011H10.672L10.067 38.153C10.408 38.098 10.7637 38.0577 11.134 38.032C11.5043 38.0027 11.8417 37.988 12.146 37.988H14.3295ZM15.656 36.646V35.821H18.3235V35.678C18.3235 35.4213 18.2869 35.1867 18.2135 34.974C18.1439 34.7577 18.0284 34.5853 17.867 34.457C17.7094 34.3287 17.4985 34.2645 17.2345 34.2645C16.8605 34.2645 16.58 34.4222 16.393 34.7375C16.206 35.0528 16.1125 35.4873 16.1125 36.041V36.3875C16.1125 36.7322 16.1474 37.0438 16.217 37.3225C16.2904 37.5975 16.4187 37.8157 16.602 37.977C16.7854 38.1347 17.0457 38.2135 17.383 38.2135C17.658 38.2135 17.9239 38.175 18.1805 38.098C18.4372 38.0173 18.681 37.9165 18.912 37.7955C19.0074 37.8872 19.0862 38.0027 19.1485 38.142C19.2145 38.2777 19.2549 38.4042 19.2695 38.5215C19.0092 38.7122 18.6957 38.8643 18.329 38.978C17.966 39.088 17.592 39.143 17.207 39.143C16.7707 39.143 16.4059 39.066 16.1125 38.912C15.8229 38.758 15.5919 38.5472 15.4195 38.2795C15.2509 38.0082 15.128 37.702 15.051 37.361C14.9777 37.02 14.941 36.6643 14.941 36.294C14.941 35.7477 15.0254 35.2582 15.194 34.8255C15.3664 34.3928 15.623 34.0518 15.964 33.8025C16.305 33.5532 16.7285 33.4285 17.2345 33.4285C17.7112 33.4285 18.1109 33.533 18.4335 33.742C18.7599 33.951 19.0055 34.2333 19.1705 34.589C19.3355 34.941 19.418 35.3352 19.418 35.7715C19.418 35.9475 19.4107 36.0997 19.396 36.228C19.385 36.3527 19.3649 36.492 19.3355 36.646H15.656ZM20.4463 37.526C20.4463 37.1043 20.5379 36.7597 20.7213 36.492C20.9083 36.2207 21.1594 36.0208 21.4748 35.8925C21.7938 35.7642 22.1531 35.7 22.5528 35.7C22.7544 35.7 22.9854 35.7092 23.2458 35.7275C23.5061 35.7458 23.7481 35.7807 23.9718 35.832V36.5965C23.7738 36.5488 23.5519 36.5195 23.3063 36.5085C23.0643 36.4938 22.8369 36.4865 22.6243 36.4865C22.2906 36.4865 22.0321 36.5727 21.8488 36.745C21.6654 36.9137 21.5738 37.1465 21.5738 37.4435C21.5738 37.6672 21.6379 37.8578 21.7663 38.0155C21.8946 38.1695 22.0779 38.2465 22.3163 38.2465C22.5839 38.2465 22.8663 38.153 23.1633 37.966C23.4603 37.779 23.7114 37.504 23.9168 37.141L24.0928 38.01C23.9608 38.164 23.7976 38.329 23.6033 38.505C23.4089 38.681 23.1834 38.8313 22.9268 38.956C22.6738 39.0807 22.3859 39.143 22.0633 39.143C21.7003 39.143 21.3978 39.0623 21.1558 38.901C20.9174 38.7397 20.7396 38.5362 20.6223 38.2905C20.5049 38.0412 20.4463 37.7863 20.4463 37.526ZM25.0333 38.494C25.0076 38.5967 24.9526 38.7067 24.8683 38.824C24.7876 38.9377 24.7014 39.0238 24.6098 39.0825C24.3788 39.0348 24.1918 38.9487 24.0488 38.824C23.9058 38.6993 23.7994 38.5508 23.7298 38.3785C23.6601 38.2025 23.6179 38.0173 23.6033 37.823V35.3425C23.6033 34.9978 23.5244 34.7503 23.3668 34.6C23.2128 34.446 22.9928 34.369 22.7068 34.369C22.4318 34.369 22.1476 34.4112 21.8543 34.4955C21.5609 34.5798 21.2676 34.6788 20.9743 34.7925C20.8863 34.7008 20.8111 34.5762 20.7488 34.4185C20.6901 34.2572 20.6571 34.1032 20.6498 33.9565C20.8551 33.8685 21.0861 33.786 21.3428 33.709C21.6031 33.632 21.8708 33.5715 22.1458 33.5275C22.4208 33.4798 22.6829 33.456 22.9323 33.456C23.2953 33.456 23.6106 33.522 23.8783 33.654C24.1459 33.786 24.3531 33.9877 24.4998 34.259C24.6501 34.5303 24.7253 34.8768 24.7253 35.2985V37.5535C24.7253 37.7588 24.7454 37.9403 24.7858 38.098C24.8261 38.252 24.9086 38.384 25.0333 38.494ZM29.2758 33.566C29.3528 33.5477 29.4262 33.5367 29.4958 33.533C29.5692 33.5257 29.6388 33.522 29.7048 33.522C29.8075 33.522 29.9065 33.5293 30.0018 33.544C30.1008 33.5587 30.1943 33.5807 30.2823 33.61L30.3098 33.6595C30.1852 34.0812 30.0458 34.5395 29.8918 35.0345C29.7378 35.5258 29.582 36.019 29.4243 36.514C29.2667 37.0053 29.1182 37.4673 28.9788 37.9C28.8395 38.3327 28.7185 38.6993 28.6158 39C28.4912 39.022 28.3555 39.0367 28.2088 39.044C28.0658 39.055 27.9265 39.0605 27.7908 39.0605C27.5672 39.0605 27.3948 39.022 27.2738 38.945C27.1565 38.868 27.0557 38.6938 26.9713 38.4225L25.4423 33.6595C25.5707 33.6008 25.688 33.5587 25.7943 33.533C25.9043 33.5037 26.007 33.489 26.1023 33.489C26.2637 33.489 26.3938 33.5257 26.4928 33.599C26.5955 33.6687 26.6707 33.7933 26.7183 33.973L27.4553 36.393C27.514 36.5727 27.5708 36.7652 27.6258 36.9705C27.6808 37.1758 27.7303 37.3702 27.7743 37.5535C27.8183 37.7332 27.8532 37.8798 27.8788 37.9935C27.8862 38.0338 27.8953 38.0595 27.9063 38.0705C27.921 38.0778 27.9448 38.0815 27.9778 38.0815L29.2758 33.566ZM31.4363 36.646V35.821H34.1038V35.678C34.1038 35.4213 34.0671 35.1867 33.9938 34.974C33.9241 34.7577 33.8086 34.5853 33.6473 34.457C33.4896 34.3287 33.2788 34.2645 33.0148 34.2645C32.6408 34.2645 32.3603 34.4222 32.1733 34.7375C31.9863 35.0528 31.8928 35.4873 31.8928 36.041V36.3875C31.8928 36.7322 31.9276 37.0438 31.9973 37.3225C32.0706 37.5975 32.199 37.8157 32.3823 37.977C32.5656 38.1347 32.826 38.2135 33.1633 38.2135C33.4383 38.2135 33.7041 38.175 33.9608 38.098C34.2175 38.0173 34.4613 37.9165 34.6923 37.7955C34.7876 37.8872 34.8665 38.0027 34.9288 38.142C34.9948 38.2777 35.0351 38.4042 35.0498 38.5215C34.7895 38.7122 34.476 38.8643 34.1093 38.978C33.7463 39.088 33.3723 39.143 32.9873 39.143C32.551 39.143 32.1861 39.066 31.8928 38.912C31.6031 38.758 31.3721 38.5472 31.1998 38.2795C31.0311 38.0082 30.9083 37.702 30.8313 37.361C30.758 37.02 30.7213 36.6643 30.7213 36.294C30.7213 35.7477 30.8056 35.2582 30.9743 34.8255C31.1466 34.3928 31.4033 34.0518 31.7443 33.8025C32.0853 33.5532 32.5088 33.4285 33.0148 33.4285C33.4915 33.4285 33.8911 33.533 34.2138 33.742C34.5401 33.951 34.7858 34.2333 34.9508 34.589C35.1158 34.941 35.1983 35.3352 35.1983 35.7715C35.1983 35.9475 35.191 36.0997 35.1763 36.228C35.1653 36.3527 35.1451 36.492 35.1158 36.646H31.4363ZM36.089 38.593C36.0964 38.4683 36.1367 38.329 36.21 38.175C36.2834 38.0173 36.3677 37.8927 36.463 37.801C36.694 37.9257 36.9415 38.0393 37.2055 38.142C37.4695 38.241 37.7372 38.2905 38.0085 38.2905C38.3092 38.2905 38.5475 38.2263 38.7235 38.098C38.8995 37.9697 38.9894 37.8047 38.993 37.603C38.993 37.449 38.9344 37.306 38.817 37.174C38.6997 37.042 38.5274 36.9357 38.3 36.855L37.662 36.6185C37.409 36.5268 37.1762 36.4113 36.9635 36.272C36.7545 36.1327 36.5859 35.964 36.4575 35.766C36.3292 35.5643 36.265 35.326 36.265 35.051C36.265 34.7137 36.3494 34.424 36.518 34.182C36.6904 33.94 36.9232 33.7548 37.2165 33.6265C37.5135 33.4945 37.8454 33.4285 38.212 33.4285C38.509 33.4285 38.8244 33.467 39.158 33.544C39.4954 33.621 39.7777 33.7145 40.005 33.8245C40.0087 33.9162 39.9977 34.017 39.972 34.127C39.9464 34.2333 39.906 34.3342 39.851 34.4295C39.7997 34.5212 39.741 34.5982 39.675 34.6605C39.4807 34.5688 39.2552 34.4863 38.9985 34.413C38.7419 34.336 38.476 34.2975 38.201 34.2975C37.9627 34.2975 37.772 34.3562 37.629 34.4735C37.486 34.5872 37.4145 34.7412 37.4145 34.9355C37.4145 35.0895 37.4695 35.2178 37.5795 35.3205C37.6932 35.4232 37.8637 35.5167 38.091 35.601L38.7675 35.8485C39.1819 35.9988 39.5174 36.206 39.774 36.47C40.0344 36.734 40.1645 37.0787 40.1645 37.504C40.1645 38.0137 39.9665 38.4152 39.5705 38.7085C39.1745 38.9982 38.6539 39.143 38.0085 39.143C37.6235 39.143 37.266 39.088 36.936 38.978C36.6097 38.868 36.3274 38.7397 36.089 38.593Z" fill="white"/>
</svg>
