<svg width="101" height="48" viewBox="0 0 101 48" fill="none" xmlns="http://www.w3.org/2000/svg">
<path d="M45 23.5C45 35.5004 35.9235 45 25 45C14.0765 45 5 35.5004 5 23.5C5 11.4996 14.0765 2 25 2C35.9235 2 45 11.4996 45 23.5Z" fill="#356D69" stroke="#7FE95A" stroke-width="4"/>
<rect y="30" width="56" height="18" fill="#356D69"/>
<path d="M11.852 34.8905C11.852 35.4258 11.7438 35.8768 11.5275 36.2435C11.3148 36.6065 11.0178 36.8815 10.6365 37.0685C10.2588 37.2518 9.82433 37.3435 9.333 37.3435H7.6775V36.4415C7.7985 36.4342 7.96533 36.4287 8.178 36.425C8.39433 36.4213 8.607 36.4195 8.816 36.4195C9.02867 36.4158 9.18633 36.414 9.289 36.414C9.65567 36.414 9.93617 36.3333 10.1305 36.172C10.3248 36.007 10.4568 35.8072 10.5265 35.5725C10.5998 35.3378 10.6365 35.1105 10.6365 34.8905C10.6365 34.6668 10.5998 34.4395 10.5265 34.2085C10.4568 33.9738 10.3248 33.7777 10.1305 33.62C9.93617 33.4587 9.65567 33.378 9.289 33.378C9.135 33.378 8.95533 33.378 8.75 33.378C8.54467 33.3743 8.35033 33.3707 8.167 33.367V40C8.079 40.0147 7.98183 40.0257 7.8755 40.033C7.76917 40.0403 7.66833 40.044 7.573 40.044C7.49233 40.044 7.397 40.0403 7.287 40.033C7.177 40.0257 7.07983 40.0147 6.9955 40V32.5475L7.067 32.4815C7.48133 32.4705 7.86817 32.4613 8.2275 32.454C8.5905 32.4467 8.959 32.443 9.333 32.443C9.82067 32.443 10.2533 32.5328 10.631 32.7125C11.0087 32.8922 11.3057 33.1635 11.522 33.5265C11.742 33.8895 11.852 34.3442 11.852 34.8905ZM16.0786 34.555C16.0786 34.709 16.0566 34.8887 16.0126 35.094C15.9686 35.2957 15.8971 35.4735 15.7981 35.6275C15.7284 35.6092 15.6551 35.5982 15.5781 35.5945C15.5011 35.5872 15.4259 35.5817 15.3526 35.578C15.1436 35.578 14.9602 35.622 14.8026 35.71C14.6486 35.7943 14.5166 35.9062 14.4066 36.0455C14.3002 36.1812 14.2086 36.3315 14.1316 36.4965C14.0546 36.6615 13.9922 36.8228 13.9446 36.9805L13.7796 36.7715C13.7869 36.5112 13.8217 36.249 13.8841 35.985C13.9464 35.7173 14.0417 35.4717 14.1701 35.248C14.3021 35.0207 14.4762 34.8392 14.6926 34.7035C14.9126 34.5642 15.1784 34.4945 15.4901 34.4945C15.5891 34.4945 15.6844 34.5 15.7761 34.511C15.8714 34.5183 15.9722 34.533 16.0786 34.555ZM12.6301 35.094C12.6557 34.995 12.7089 34.885 12.7896 34.764C12.8702 34.6393 12.9546 34.5477 13.0426 34.489C13.4092 34.5697 13.6824 34.7548 13.8621 35.0445C14.0417 35.3305 14.1444 35.6917 14.1701 36.128V40C14.0931 40.0147 14.0051 40.0257 13.9061 40.033C13.8071 40.0403 13.7062 40.044 13.6036 40.044C13.5009 40.044 13.4001 40.0403 13.3011 40.033C13.2021 40.0257 13.1141 40.0147 13.0371 40V36.227C13.0371 35.9337 12.9931 35.6935 12.9051 35.5065C12.8171 35.3195 12.7254 35.182 12.6301 35.094ZM17.1248 37.646V36.821H19.7923V36.678C19.7923 36.4213 19.7556 36.1867 19.6823 35.974C19.6126 35.7577 19.4971 35.5853 19.3358 35.457C19.1781 35.3287 18.9673 35.2645 18.7033 35.2645C18.3293 35.2645 18.0488 35.4222 17.8618 35.7375C17.6748 36.0528 17.5813 36.4873 17.5813 37.041V37.3875C17.5813 37.7322 17.6161 38.0438 17.6858 38.3225C17.7591 38.5975 17.8874 38.8157 18.0708 38.977C18.2541 39.1347 18.5144 39.2135 18.8518 39.2135C19.1268 39.2135 19.3926 39.175 19.6493 39.098C19.9059 39.0173 20.1498 38.9165 20.3808 38.7955C20.4761 38.8872 20.5549 39.0027 20.6173 39.142C20.6833 39.2777 20.7236 39.4042 20.7383 39.5215C20.4779 39.7122 20.1644 39.8643 19.7978 39.978C19.4348 40.088 19.0608 40.143 18.6758 40.143C18.2394 40.143 17.8746 40.066 17.5813 39.912C17.2916 39.758 17.0606 39.5472 16.8883 39.2795C16.7196 39.0082 16.5968 38.702 16.5198 38.361C16.4464 38.02 16.4098 37.6643 16.4098 37.294C16.4098 36.7477 16.4941 36.2582 16.6628 35.8255C16.8351 35.3928 17.0918 35.0518 17.4328 34.8025C17.7738 34.5532 18.1973 34.4285 18.7033 34.4285C19.1799 34.4285 19.5796 34.533 19.9023 34.742C20.2286 34.951 20.4743 35.2333 20.6393 35.589C20.8043 35.941 20.8868 36.3352 20.8868 36.7715C20.8868 36.9475 20.8794 37.0997 20.8648 37.228C20.8538 37.3527 20.8336 37.492 20.8043 37.646H17.1248ZM21.7775 39.593C21.7849 39.4683 21.8252 39.329 21.8985 39.175C21.9719 39.0173 22.0562 38.8927 22.1515 38.801C22.3825 38.9257 22.63 39.0393 22.894 39.142C23.158 39.241 23.4257 39.2905 23.697 39.2905C23.9977 39.2905 24.236 39.2263 24.412 39.098C24.588 38.9697 24.6779 38.8047 24.6815 38.603C24.6815 38.449 24.6229 38.306 24.5055 38.174C24.3882 38.042 24.2159 37.9357 23.9885 37.855L23.3505 37.6185C23.0975 37.5268 22.8647 37.4113 22.652 37.272C22.443 37.1327 22.2744 36.964 22.146 36.766C22.0177 36.5643 21.9535 36.326 21.9535 36.051C21.9535 35.7137 22.0379 35.424 22.2065 35.182C22.3789 34.94 22.6117 34.7548 22.905 34.6265C23.202 34.4945 23.5339 34.4285 23.9005 34.4285C24.1975 34.4285 24.5129 34.467 24.8465 34.544C25.1839 34.621 25.4662 34.7145 25.6935 34.8245C25.6972 34.9162 25.6862 35.017 25.6605 35.127C25.6349 35.2333 25.5945 35.3342 25.5395 35.4295C25.4882 35.5212 25.4295 35.5982 25.3635 35.6605C25.1692 35.5688 24.9437 35.4863 24.687 35.413C24.4304 35.336 24.1645 35.2975 23.8895 35.2975C23.6512 35.2975 23.4605 35.3562 23.3175 35.4735C23.1745 35.5872 23.103 35.7412 23.103 35.9355C23.103 36.0895 23.158 36.2178 23.268 36.3205C23.3817 36.4232 23.5522 36.5167 23.7795 36.601L24.456 36.8485C24.8704 36.9988 25.2059 37.206 25.4625 37.47C25.7229 37.734 25.853 38.0787 25.853 38.504C25.853 39.0137 25.655 39.4152 25.259 39.7085C24.863 39.9982 24.3424 40.143 23.697 40.143C23.312 40.143 22.9545 40.088 22.6245 39.978C22.2982 39.868 22.0159 39.7397 21.7775 39.593ZM27.448 37.646V36.821H30.1155V36.678C30.1155 36.4213 30.0789 36.1867 30.0055 35.974C29.9359 35.7577 29.8204 35.5853 29.659 35.457C29.5014 35.3287 29.2905 35.2645 29.0265 35.2645C28.6525 35.2645 28.372 35.4222 28.185 35.7375C27.998 36.0528 27.9045 36.4873 27.9045 37.041V37.3875C27.9045 37.7322 27.9394 38.0438 28.009 38.3225C28.0824 38.5975 28.2107 38.8157 28.394 38.977C28.5774 39.1347 28.8377 39.2135 29.175 39.2135C29.45 39.2135 29.7159 39.175 29.9725 39.098C30.2292 39.0173 30.473 38.9165 30.704 38.7955C30.7994 38.8872 30.8782 39.0027 30.9405 39.142C31.0065 39.2777 31.0469 39.4042 31.0615 39.5215C30.8012 39.7122 30.4877 39.8643 30.121 39.978C29.758 40.088 29.384 40.143 28.999 40.143C28.5627 40.143 28.1979 40.066 27.9045 39.912C27.6149 39.758 27.3839 39.5472 27.2115 39.2795C27.0429 39.0082 26.92 38.702 26.843 38.361C26.7697 38.02 26.733 37.6643 26.733 37.294C26.733 36.7477 26.8174 36.2582 26.986 35.8255C27.1584 35.3928 27.415 35.0518 27.756 34.8025C28.097 34.5532 28.5205 34.4285 29.0265 34.4285C29.5032 34.4285 29.9029 34.533 30.2255 34.742C30.5519 34.951 30.7975 35.2333 30.9625 35.589C31.1275 35.941 31.21 36.3352 31.21 36.7715C31.21 36.9475 31.2027 37.0997 31.188 37.228C31.177 37.3527 31.1569 37.492 31.1275 37.646H27.448ZM33.1128 34.522C33.3511 34.522 33.5161 34.5935 33.6078 34.7365C33.7031 34.8795 33.7508 35.0775 33.7508 35.3305V40C33.6774 40.0147 33.5913 40.0257 33.4923 40.033C33.3933 40.0403 33.2924 40.044 33.1898 40.044C33.0871 40.044 32.9863 40.0403 32.8873 40.033C32.7883 40.0257 32.6984 40.0147 32.6178 40V34.5935L32.6893 34.522H33.1128ZM36.9518 38.8395C36.9518 39.0302 36.9646 39.2117 36.9903 39.384C37.0196 39.5527 37.0691 39.7012 37.1388 39.8295C37.0544 39.8992 36.9481 39.956 36.8198 40C36.6914 40.0477 36.5594 40.0715 36.4238 40.0715C36.2001 40.0715 36.0424 40.011 35.9508 39.89C35.8628 39.769 35.8188 39.5893 35.8188 39.351V36.5515C35.8188 36.1812 35.7711 35.9135 35.6758 35.7485C35.5804 35.5798 35.3989 35.4955 35.1313 35.4955C34.9479 35.4955 34.7481 35.5395 34.5318 35.6275C34.3191 35.7155 34.1174 35.842 33.9268 36.007C33.7361 36.1683 33.5821 36.3572 33.4648 36.5735V35.4845C33.7104 35.2022 34.0111 34.9638 34.3668 34.7695C34.7224 34.5715 35.0983 34.4725 35.4943 34.4725C35.8389 34.4725 36.1176 34.5532 36.3303 34.7145C36.5429 34.8722 36.6988 35.0867 36.7978 35.358C36.9004 35.6293 36.9518 35.9355 36.9518 36.2765V38.8395ZM38.8261 33.609C38.8261 33.356 38.8683 33.1727 38.9526 33.059C39.037 32.9417 39.1983 32.883 39.4366 32.883H39.8656L39.9371 32.96V38.669C39.9371 38.8157 39.972 38.933 40.0416 39.021C40.1113 39.1053 40.2286 39.1475 40.3936 39.1475H41.1526C41.2113 39.3198 41.2406 39.5105 41.2406 39.7195C41.2406 39.7598 41.2388 39.802 41.2351 39.846C41.2351 39.89 41.2296 39.9303 41.2186 39.967C41.0353 39.989 40.8391 40.0073 40.6301 40.022C40.4211 40.0403 40.2085 40.0495 39.9921 40.0495C39.6181 40.0495 39.3303 39.956 39.1286 39.769C38.927 39.5783 38.8261 39.2942 38.8261 38.9165V33.609ZM41.2956 34.5605C41.3323 34.6962 41.3506 34.8337 41.3506 34.973C41.3506 35.127 41.3323 35.2682 41.2956 35.3965L39.4971 35.3745L38.0176 35.3965C37.9883 35.2608 37.9736 35.1197 37.9736 34.973C37.9736 34.841 37.9883 34.7035 38.0176 34.5605L39.5136 34.5825L41.2956 34.5605ZM41.9621 39.593C41.9694 39.4683 42.0098 39.329 42.0831 39.175C42.1564 39.0173 42.2408 38.8927 42.3361 38.801C42.5671 38.9257 42.8146 39.0393 43.0786 39.142C43.3426 39.241 43.6103 39.2905 43.8816 39.2905C44.1823 39.2905 44.4206 39.2263 44.5966 39.098C44.7726 38.9697 44.8624 38.8047 44.8661 38.603C44.8661 38.449 44.8074 38.306 44.6901 38.174C44.5728 38.042 44.4004 37.9357 44.1731 37.855L43.5351 37.6185C43.2821 37.5268 43.0493 37.4113 42.8366 37.272C42.6276 37.1327 42.4589 36.964 42.3306 36.766C42.2023 36.5643 42.1381 36.326 42.1381 36.051C42.1381 35.7137 42.2224 35.424 42.3911 35.182C42.5634 34.94 42.7963 34.7548 43.0896 34.6265C43.3866 34.4945 43.7184 34.4285 44.0851 34.4285C44.3821 34.4285 44.6974 34.467 45.0311 34.544C45.3684 34.621 45.6508 34.7145 45.8781 34.8245C45.8818 34.9162 45.8708 35.017 45.8451 35.127C45.8194 35.2333 45.7791 35.3342 45.7241 35.4295C45.6728 35.5212 45.6141 35.5982 45.5481 35.6605C45.3538 35.5688 45.1283 35.4863 44.8716 35.413C44.6149 35.336 44.3491 35.2975 44.0741 35.2975C43.8358 35.2975 43.6451 35.3562 43.5021 35.4735C43.3591 35.5872 43.2876 35.7412 43.2876 35.9355C43.2876 36.0895 43.3426 36.2178 43.4526 36.3205C43.5663 36.4232 43.7368 36.5167 43.9641 36.601L44.6406 36.8485C45.0549 36.9988 45.3904 37.206 45.6471 37.47C45.9074 37.734 46.0376 38.0787 46.0376 38.504C46.0376 39.0137 45.8396 39.4152 45.4436 39.7085C45.0476 39.9982 44.5269 40.143 43.8816 40.143C43.4966 40.143 43.1391 40.088 42.8091 39.978C42.4828 39.868 42.2004 39.7397 41.9621 39.593Z" fill="white"/>
</svg>
